<svg width="89" height="89" viewBox="0 0 89 89" fill="none" xmlns="http://www.w3.org/2000/svg">
<circle cx="44.5" cy="44.5" r="44.5" fill="white" fill-opacity="0.7"/>
<path d="M60.8945 19.625H45.9062L55.4434 32.342L60.8945 19.625ZM29.1055 19.625L34.5566 32.342L44.0938 19.625H29.1055ZM45 24.4587L37.75 34.125H52.25L45 24.4587ZM63.9123 21.7841L58.6232 34.125H71.2812L63.9123 21.7841ZM26.0877 21.7841L18.6055 34.125H31.3768L26.0877 21.7841ZM32.6161 37.75H18.7188L43.9578 70.375H44.0179L32.6161 37.75ZM57.3839 37.75L45.9821 70.375H46.0422L71.2812 37.75H57.3839ZM53.3137 37.75H36.6863L45 61.3125L53.3137 37.75Z" fill="#666666"/>
</svg>
