<svg width="96" height="100" viewBox="0 0 96 100" fill="none" xmlns="http://www.w3.org/2000/svg">
<rect width="96" height="100" rx="26" fill="#EFEFF1"/>
<path d="M55.9011 51.1289L44.8397 64.6735L40.0991 59.246" stroke="#FF5A00" stroke-width="5" stroke-linecap="round" stroke-linejoin="round"/>
<path d="M36.5248 40.3046V36.4264C36.5248 33.3408 37.7338 30.3815 39.8858 28.1996C42.0379 26.0178 44.9566 24.792 48.0001 24.792C51.0435 24.792 53.9623 26.0178 56.1143 28.1996C58.2663 30.3815 59.4753 33.3408 59.4753 36.4264V40.3046M26.9621 40.3046C26.4549 40.3046 25.9684 40.5089 25.6097 40.8725C25.2511 41.2361 25.0496 41.7294 25.0496 42.2436V68.4211C25.0496 72.0859 28.1288 75.2078 31.7435 75.2078H64.2567C67.8714 75.2078 70.9506 72.2374 70.9506 68.5726V42.2436C70.9506 41.7294 70.7491 41.2361 70.3904 40.8725C70.0317 40.5089 69.5453 40.3046 69.038 40.3046H26.9621Z" stroke="#FF5A00" stroke-width="5" stroke-linecap="round" stroke-linejoin="round"/>
</svg>
