<svg width="89" height="89" viewBox="0 0 89 89" fill="none" xmlns="http://www.w3.org/2000/svg">
<circle cx="44.5" cy="44.5" r="44.5" fill="#EFEFF1"/>
<g clip-path="url(#clip0_2095_113)">
<path d="M21.4375 57.5652L43.1875 70.375V48.1719L21.4375 35.2578V57.5652ZM37.75 48.625C38.7514 48.625 39.5625 49.8428 39.5625 51.3438C39.5625 52.8447 38.7514 54.0625 37.75 54.0625C36.7486 54.0625 35.9375 52.8447 35.9375 51.3438C35.9375 49.8428 36.7486 48.625 37.75 48.625ZM26.875 52.25C27.8764 52.25 28.6875 53.4678 28.6875 54.9688C28.6875 56.4697 27.8764 57.6875 26.875 57.6875C25.8736 57.6875 25.0625 56.4697 25.0625 54.9688C25.0625 53.4678 25.8736 52.25 26.875 52.25ZM46.8125 48.1719V70.375L68.5625 57.5652V35.2578L46.8125 48.1719ZM52.25 64.0312C51.2486 64.0312 50.4375 62.8135 50.4375 61.3125C50.4375 59.8115 51.2486 58.5938 52.25 58.5938C53.2514 58.5938 54.0625 59.8115 54.0625 61.3125C54.0625 62.8135 53.2514 64.0312 52.25 64.0312ZM52.25 54.0625C51.2486 54.0625 50.4375 52.8447 50.4375 51.3438C50.4375 49.8428 51.2486 48.625 52.25 48.625C53.2514 48.625 54.0625 49.8428 54.0625 51.3438C54.0625 52.8447 53.2514 54.0625 52.25 54.0625ZM63.125 57.6875C62.1236 57.6875 61.3125 56.4697 61.3125 54.9688C61.3125 53.4678 62.1236 52.25 63.125 52.25C64.1264 52.25 64.9375 53.4678 64.9375 54.9688C64.9375 56.4697 64.1264 57.6875 63.125 57.6875ZM63.125 47.7188C62.1236 47.7188 61.3125 46.501 61.3125 45C61.3125 43.499 62.1236 42.2812 63.125 42.2812C64.1264 42.2812 64.9375 43.499 64.9375 45C64.9375 46.501 64.1264 47.7188 63.125 47.7188ZM45 19.625L23.25 32.3125L45 45L66.75 32.3125L45 19.625ZM45 33.2188C43.499 33.2188 42.2812 32.4077 42.2812 31.4062C42.2812 30.4048 43.499 29.5938 45 29.5938C46.501 29.5938 47.7188 30.4048 47.7188 31.4062C47.7188 32.4077 46.501 33.2188 45 33.2188Z" fill="#FF5A00"/>
</g>
<defs>
<clipPath id="clip0_2095_113">
<rect width="58" height="58" fill="white" transform="translate(16 16)"/>
</clipPath>
</defs>
</svg>
