<svg width="76" height="76" viewBox="0 0 76 76" fill="none" xmlns="http://www.w3.org/2000/svg">
<path d="M69 31.9152C69.0013 31.0902 68.7833 30.2795 68.3681 29.5656C67.953 28.8517 67.3556 28.2601 66.6366 27.8509L40.9437 12.6573C40.2033 12.2268 39.3613 12 38.5041 12C37.6468 12 36.8049 12.2268 36.0644 12.6573L10.3334 27.8509C9.6224 28.2713 9.03337 28.8689 8.62425 29.5848C8.21513 30.3007 8 31.1104 8 31.9342C8 32.7581 8.21513 33.5677 8.62425 34.2837C9.03337 34.9996 9.6224 35.5971 10.3334 36.0175L17.6525 40.2717V50.9452C17.6569 51.7794 17.8766 52.5984 18.2905 53.3235C18.7044 54.0486 19.2986 54.6554 20.0159 55.0855L36.2169 64.3916C36.9402 64.7906 37.7535 65 38.5803 65C39.4071 65 40.2204 64.7906 40.9437 64.3916L57.1447 55.0855C57.862 54.6554 58.4562 54.0486 58.8701 53.3235C59.284 52.5984 59.5037 51.7794 59.5081 50.9452V40.1578L64.235 37.3849V47.7166H69V31.9152ZM54.7813 50.9072L38.5041 60.2513L22.4175 50.9452V43.0825L36.0644 51.1731C36.8074 51.5962 37.6483 51.8187 38.5041 51.8187C39.3598 51.8187 40.2007 51.5962 40.9437 51.1731L54.7431 42.9686L54.7813 50.9072ZM38.5041 47.0709L12.7731 31.8772L38.5041 16.6456L64.235 31.8393L38.5041 47.0709Z" fill="#FF5A00"/>
</svg>
