<svg width="96" height="100" viewBox="0 0 96 100" fill="none" xmlns="http://www.w3.org/2000/svg">
<rect width="96" height="100" rx="26" fill="#EFEFF1"/>
<path d="M48 32.7727V41.6364L61 29.8182L48 18V26.8636C41.1044 26.8636 34.4912 29.3539 29.6152 33.7866C24.7393 38.2192 22 44.2312 22 50.5C22 55.1386 23.495 59.4523 26.03 63.0864L30.775 58.7727C29.275 56.2289 28.4933 53.3863 28.5 50.5C28.5 45.7984 30.5545 41.2894 34.2114 37.9649C37.8684 34.6404 42.8283 32.7727 48 32.7727ZM69.97 37.9136L65.225 42.2273C66.655 44.7091 67.5 47.5455 67.5 50.5C67.5 55.2016 65.4455 59.7106 61.7886 63.0351C58.1316 66.3596 53.1717 68.2273 48 68.2273V59.3636L35 71.1818L48 83V74.1364C54.8956 74.1364 61.5088 71.6461 66.3848 67.2134C71.2607 62.7808 74 56.7688 74 50.5C74 45.8614 72.505 41.5477 69.97 37.9136Z" fill="#FF5A00"/>
</svg>
