<svg width="89" height="89" viewBox="0 0 89 89" fill="none" xmlns="http://www.w3.org/2000/svg">
<circle cx="44.5" cy="44.5" r="44.5" fill="white" fill-opacity="0.7"/>
<path d="M54.6668 30.5H35.3335C31.4879 30.5 27.7997 32.0277 25.0804 34.747C22.3612 37.4662 20.8335 41.1544 20.8335 45C20.8335 48.8456 22.3612 52.5338 25.0804 55.2531C27.7997 57.9723 31.4879 59.5 35.3335 59.5H54.6668C58.5125 59.5 62.2006 57.9723 64.9199 55.2531C67.6392 52.5338 69.1668 48.8456 69.1668 45C69.1668 41.1544 67.6392 37.4662 64.9199 34.747C62.2006 32.0277 58.5125 30.5 54.6668 30.5ZM42.5835 47.4167H37.7502V52.25H32.9168V47.4167H28.0835V42.5833H32.9168V37.75H37.7502V42.5833H42.5835V47.4167ZM51.0418 52.25C50.0804 52.25 49.1584 51.8681 48.4786 51.1883C47.7987 50.5084 47.4168 49.5864 47.4168 48.625C47.4168 47.6636 47.7987 46.7416 48.4786 46.0617C49.1584 45.3819 50.0804 45 51.0418 45C52.0032 45 52.9253 45.3819 53.6051 46.0617C54.2849 46.7416 54.6668 47.6636 54.6668 48.625C54.6668 49.5864 54.2849 50.5084 53.6051 51.1883C52.9253 51.8681 52.0032 52.25 51.0418 52.25ZM58.2918 45C57.3304 45 56.4084 44.6181 55.7286 43.9383C55.0487 43.2584 54.6668 42.3364 54.6668 41.375C54.6668 40.4136 55.0487 39.4916 55.7286 38.8117C56.4084 38.1319 57.3304 37.75 58.2918 37.75C59.2532 37.75 60.1753 38.1319 60.8551 38.8117C61.5349 39.4916 61.9168 40.4136 61.9168 41.375C61.9168 42.3364 61.5349 43.2584 60.8551 43.9383C60.1753 44.6181 59.2532 45 58.2918 45Z" fill="#666666"/>
</svg>
