<svg width="96" height="100" viewBox="0 0 96 100" fill="none" xmlns="http://www.w3.org/2000/svg">
<rect width="96" height="100" rx="26" fill="#EFEFF1"/>
<path d="M70.4474 59.8403L56.5143 73.5583L51.0383 68.1669L48.0571 71.102L56.5143 79.4285L73.4285 62.7754L70.4474 59.8403ZM31.1428 58.6122H43.8285V62.7754H31.1428V58.6122ZM31.1428 50.2856H48.0571V54.4489H31.1428V50.2856Z" fill="#FF5A00"/>
<path d="M26.8572 24.7754H44.0001V37.3876C44.0001 39.6999 45.9287 41.5917 48.2858 41.5917H61.143V54.2039H65.4287V37.3876C65.4287 36.757 65.2144 36.3366 64.7858 35.9162L49.7858 21.2019C49.3572 20.7815 48.9287 20.5713 48.2858 20.5713H26.8572C24.5001 20.5713 22.5715 22.4631 22.5715 24.7754V75.2243C22.5715 77.5366 24.5001 79.4284 26.8572 79.4284H41.8572V75.2243H26.8572V24.7754ZM48.2858 25.6162L60.2858 37.3876H48.2858V25.6162Z" fill="#FF5A00"/>
</svg>
