<svg width="181" height="49" viewBox="0 0 181 49" fill="none" xmlns="http://www.w3.org/2000/svg">
<g clip-path="url(#clip0_2044_560)">
<mask id="mask0_2044_560" style="mask-type:luminance" maskUnits="userSpaceOnUse" x="53" y="-1" width="129" height="51">
<path d="M181.089 -0.994141H53.0889V49.1542H181.089V-0.994141Z" fill="white"/>
</mask>
<g mask="url(#mask0_2044_560)">
<path d="M70.75 39.202C68.6354 39.2299 66.5352 38.8504 64.564 38.0842C62.7695 37.3854 61.135 36.3305 59.7588 34.9833C58.4061 33.6343 57.3429 32.0233 56.6342 30.2491C55.8754 28.3547 55.4957 26.3299 55.5164 24.2893V24.2078C55.4905 21.2623 56.3431 18.3759 57.9655 15.9173C59.5878 13.4587 61.9062 11.5396 64.6245 10.4049C66.5522 9.60311 68.623 9.2022 70.7106 9.22664C71.8941 9.21611 73.0765 9.30408 74.2455 9.48965C75.253 9.65419 76.2434 9.91038 77.2043 10.255C78.1016 10.5775 78.9628 10.9926 79.774 11.4938C80.5896 12.0058 81.3651 12.579 82.0937 13.2086L78.0775 18.0533C77.5539 17.6029 77.0012 17.1873 76.4232 16.8093C75.8753 16.4553 75.2971 16.1507 74.6952 15.8992C74.0776 15.6417 73.4363 15.4453 72.7805 15.3127C72.0307 15.1694 71.2688 15.0998 70.5054 15.1049C69.3811 15.0999 68.2703 15.3508 67.2573 15.8387C66.2573 16.3135 65.3568 16.974 64.6035 17.785C63.8363 18.6152 63.2338 19.5836 62.8281 20.6387C62.3973 21.7533 62.1805 22.9392 62.189 24.1341V24.2183C62.1758 25.4684 62.3924 26.7103 62.8281 27.882C63.235 28.9671 63.8537 29.9604 64.6482 30.8041C65.4303 31.6286 66.374 32.2831 67.4203 32.7267C68.5421 33.1908 69.7466 33.4217 70.9605 33.4053C73.3346 33.4053 75.3343 32.8266 76.9597 31.6694V27.527H70.5449V22.0248H83.13V34.6072C81.5256 35.9468 79.7328 37.0431 77.8093 37.8607C75.7525 38.7549 73.3994 39.202 70.75 39.202Z" fill="#1B0B0C"/>
<path d="M95.8728 9.52637H101.754L114.168 38.7206H107.506L104.86 32.2216H92.6062L89.9498 38.7048H83.4561L95.8728 9.52637ZM102.574 26.5774L98.7344 17.1826L94.8813 26.5774H102.574Z" fill="#1B0B0C"/>
<path d="M115.615 9.729H121.993V38.705H115.615V9.729Z" fill="#1B0B0C"/>
<path d="M125.925 9.729H131.8L145.377 27.5717V9.729H151.668V38.705H146.247L132.216 20.2942V38.705H125.925V9.729Z" fill="#1B0B0C"/>
<path d="M155.311 9.729H168.553C172.222 9.729 175.039 10.7135 177.007 12.6826C178.66 14.3361 179.488 16.5427 179.489 19.3026V19.3841C179.489 21.7302 178.915 23.6423 177.767 25.1204C176.611 26.6075 175.054 27.7328 173.28 28.3634L180.36 38.7155H172.898L166.691 29.4443H161.694V38.7155H155.311V9.729ZM168.138 23.8054C169.716 23.8054 170.923 23.4328 171.76 22.6876C172.178 22.3157 172.509 21.8554 172.728 21.34C172.946 20.8247 173.048 20.2671 173.025 19.7077V19.6261C173.025 18.2462 172.586 17.2099 171.71 16.5173C170.833 15.8247 169.605 15.4802 168.027 15.4837H161.684V23.8054H168.138Z" fill="#1B0B0C"/>
</g>
<path d="M15.1994 11.2069L14.1184 20.6043C12.5198 20.3977 10.8998 20.4216 9.30797 20.6753C7.67134 20.9742 6.11416 21.6081 4.7342 22.5374C3.64934 23.2291 2.72843 24.1491 2.03571 25.2333C1.37669 26.277 0.924854 27.4379 0.70487 28.6525C0.487042 29.9038 0.505776 31.1849 0.760103 32.4293C1.02629 33.7588 1.54696 35.0243 2.29346 36.1562L2.35395 36.243C3.98462 38.7521 6.11852 40.3065 8.75565 40.9061C11.3928 41.5058 13.9352 41.0087 16.383 39.4149C17.3392 38.8142 18.2105 38.088 18.9736 37.2556C19.6089 36.5595 20.1292 35.7667 20.5149 34.9069L18.0689 31.1405L11.9986 35.0857L7.91664 28.7918L22.135 19.5575L31.1642 33.4603C30.3435 36.035 29.1318 38.4683 27.5715 40.6747C25.918 43.0734 23.6728 45.1924 20.8358 47.0317C20.2072 47.4394 19.5733 47.8207 18.9289 48.1495H41.5847C43.3286 48.1495 45.001 47.4567 46.2341 46.2236C47.4673 44.9905 48.16 43.3181 48.16 41.5742V6.57528C48.16 4.83141 47.4673 3.15896 46.2341 1.92586C45.001 0.692751 43.3286 0 41.5847 0H6.57528C4.83141 0 3.15896 0.692751 1.92586 1.92586C0.692751 3.15896 0 4.83141 0 6.57528L0 14.7286C2.61258 13.0682 5.14012 11.9793 7.58262 11.462C10.0868 10.9294 12.6653 10.843 15.1994 11.2069Z" fill="#FF5A00"/>
</g>
<defs>
<clipPath id="clip0_2044_560">
<rect width="180.352" height="48.16" fill="white"/>
</clipPath>
</defs>
</svg>
