<svg width="53" height="51" viewBox="0 0 53 51" fill="none" xmlns="http://www.w3.org/2000/svg">
<path d="M42.289 0H27.3008L36.8379 12.717L42.289 0ZM10.5 0L15.9511 12.717L25.4883 0H10.5ZM26.3945 4.83371L19.1445 14.5H33.6445L26.3945 4.83371ZM45.3068 2.15914L40.0177 14.5H52.6758L45.3068 2.15914ZM7.48223 2.15914L0 14.5H12.7713L7.48223 2.15914ZM14.0106 18.125H0.113281L25.3523 50.75H25.4124L14.0106 18.125ZM38.7784 18.125L27.3767 50.75H27.4367L52.6758 18.125H38.7784ZM34.7082 18.125H18.0808L26.3945 41.6875L34.7082 18.125Z" fill="#666666"/>
</svg>
