<svg width="48" height="51" viewBox="0 0 48 51" fill="none" xmlns="http://www.w3.org/2000/svg">
<path d="M0 37.9402L21.75 50.75V28.5469L0 15.6328V37.9402ZM16.3125 29C17.3139 29 18.125 30.2178 18.125 31.7188C18.125 33.2197 17.3139 34.4375 16.3125 34.4375C15.3111 34.4375 14.5 33.2197 14.5 31.7188C14.5 30.2178 15.3111 29 16.3125 29ZM5.4375 32.625C6.43891 32.625 7.25 33.8428 7.25 35.3438C7.25 36.8447 6.43891 38.0625 5.4375 38.0625C4.43609 38.0625 3.625 36.8447 3.625 35.3438C3.625 33.8428 4.43609 32.625 5.4375 32.625ZM25.375 28.5469V50.75L47.125 37.9402V15.6328L25.375 28.5469ZM30.8125 44.4062C29.8111 44.4062 29 43.1885 29 41.6875C29 40.1865 29.8111 38.9688 30.8125 38.9688C31.8139 38.9688 32.625 40.1865 32.625 41.6875C32.625 43.1885 31.8139 44.4062 30.8125 44.4062ZM30.8125 34.4375C29.8111 34.4375 29 33.2197 29 31.7188C29 30.2178 29.8111 29 30.8125 29C31.8139 29 32.625 30.2178 32.625 31.7188C32.625 33.2197 31.8139 34.4375 30.8125 34.4375ZM41.6875 38.0625C40.6861 38.0625 39.875 36.8447 39.875 35.3438C39.875 33.8428 40.6861 32.625 41.6875 32.625C42.6889 32.625 43.5 33.8428 43.5 35.3438C43.5 36.8447 42.6889 38.0625 41.6875 38.0625ZM41.6875 28.0938C40.6861 28.0938 39.875 26.876 39.875 25.375C39.875 23.874 40.6861 22.6562 41.6875 22.6562C42.6889 22.6562 43.5 23.874 43.5 25.375C43.5 26.876 42.6889 28.0938 41.6875 28.0938ZM23.5625 0L1.8125 12.6875L23.5625 25.375L45.3125 12.6875L23.5625 0ZM23.5625 13.5938C22.0615 13.5938 20.8438 12.7827 20.8438 11.7812C20.8438 10.7798 22.0615 9.96875 23.5625 9.96875C25.0635 9.96875 26.2812 10.7798 26.2812 11.7812C26.2812 12.7827 25.0635 13.5938 23.5625 13.5938Z" fill="#FF5A00"/>
</svg>
