<svg width="49" height="29" viewBox="0 0 49 29" fill="none" xmlns="http://www.w3.org/2000/svg">
<path d="M33.8333 0H14.5C10.6544 0 6.96623 1.52767 4.24695 4.24695C1.52767 6.96623 0 10.6544 0 14.5C0 18.3456 1.52767 22.0338 4.24695 24.7531C6.96623 27.4723 10.6544 29 14.5 29H33.8333C37.679 29 41.3671 27.4723 44.0864 24.7531C46.8057 22.0338 48.3333 18.3456 48.3333 14.5C48.3333 10.6544 46.8057 6.96623 44.0864 4.24695C41.3671 1.52767 37.679 0 33.8333 0ZM21.75 16.9167H16.9167V21.75H12.0833V16.9167H7.25V12.0833H12.0833V7.25H16.9167V12.0833H21.75V16.9167ZM30.2083 21.75C29.2469 21.75 28.3249 21.3681 27.6451 20.6883C26.9653 20.0084 26.5833 19.0864 26.5833 18.125C26.5833 17.1636 26.9653 16.2416 27.6451 15.5617C28.3249 14.8819 29.2469 14.5 30.2083 14.5C31.1697 14.5 32.0918 14.8819 32.7716 15.5617C33.4514 16.2416 33.8333 17.1636 33.8333 18.125C33.8333 19.0864 33.4514 20.0084 32.7716 20.6883C32.0918 21.3681 31.1697 21.75 30.2083 21.75ZM37.4583 14.5C36.4969 14.5 35.5749 14.1181 34.8951 13.4383C34.2153 12.7584 33.8333 11.8364 33.8333 10.875C33.8333 9.91359 34.2153 8.99156 34.8951 8.31174C35.5749 7.63192 36.4969 7.25 37.4583 7.25C38.4197 7.25 39.3418 7.63192 40.0216 8.31174C40.7014 8.99156 41.0833 9.91359 41.0833 10.875C41.0833 11.8364 40.7014 12.7584 40.0216 13.4383C39.3418 14.1181 38.4197 14.5 37.4583 14.5Z" fill="#666666"/>
</svg>
